# xmcd
#
# Track frame offsets: 
#        150
#        29506
#        60540
#        80917
#        102961
#        124044
#        154610
#        170784
#        190873
#        202325
#        230113
#        252247
#        263784
#
# Disc length: 3749 seconds
#
# Revision: 0
# Processed by: cddbd v1.5.2PL0 Copyright (c) Steve Scherf et al.
# Submitted via: ExactAudioCopy v1.2
#
DISCID=be0ea30d
DTITLE=久石让 - 天空之城
DYEAR=2009
DGENRE=Classical
TTITLE0=天空之城
TTITLE1=幻想曲
TTITLE2=那年夏天
TTITLE3=风之森林
TTITLE4=生命之风
TTITLE5=狂想曲
TTITLE6=花火
TTITLE7=人生的旋转木马
TTITLE8=盛夏
TTITLE9=心灵之谷
TTITLE10=世界之梦
TTITLE11=飞翔的精灵
TTITLE12=阿西达卡与魔法公主
EXTD=
EXTT0=
EXTT1=
EXTT2=
EXTT3=
EXTT4=
EXTT5=
EXTT6=
EXTT7=
EXTT8=
EXTT9=
EXTT10=
EXTT11=
EXTT12=
PLAYORDER=
